<?xml version="1.0" standalone="no"?>
<!DOCTYPE svg PUBLIC "-//W3C//DTD SVG 20010904//EN"
 "http://www.w3.org/TR/2001/REC-SVG-20010904/DTD/svg10.dtd">
<svg version="1.0" xmlns="http://www.w3.org/2000/svg"
 width="199.000000pt" height="199.000000pt" viewBox="0 0 199.000000 199.000000"
 preserveAspectRatio="xMidYMid meet">
<metadata>
Created by potrace 1.14, written by Peter Selinger 2001-2017
</metadata>
<g transform="translate(0.000000,199.000000) scale(0.100000,-0.100000)"
fill="#000000" stroke="none">
<path d="M159 1986 c-1 -1 -3 -448 -4 -993 l-1 -993 258 0 258 0 0 330 c0 257
3 330 13 331 6 0 125 2 262 4 271 3 302 5 415 36 122 32 216 85 296 164 121
120 175 262 175 455 -1 113 -3 136 -27 219 -44 156 -158 289 -305 359 -88 41
-169 66 -254 78 -37 5 -1078 14 -1086 10z m974 -245 l57 -1 0 -160 0 -160 163
0 162 0 -2 -92 c-1 -51 -2 -96 -2 -100 -1 -5 -73 -8 -161 -8 l-160 0 0 -160 0
-160 -99 0 -98 0 1 160 1 160 -162 0 -163 0 0 100 0 100 162 2 161 3 0 153 c0
145 1 154 20 161 11 4 29 6 41 5 11 -1 47 -3 79 -3z"/>
</g>
</svg>
